<?xml version="1.0" encoding="iso-8859-1"?>
<!-- Uploaded to: SVG Repo, www.svgrepo.com, Generator: SVG Repo Mixer Tools -->
<svg fill="#000000" height="800px" width="800px" version="1.1" id="Layer_1" xmlns="http://www.w3.org/2000/svg" xmlns:xlink="http://www.w3.org/1999/xlink" 
	 viewBox="0 0 512 512" xml:space="preserve">
<g>
	<g>
		<path d="M271.21,64.975V0h-30.417v64.975C147.23,72.356,72.357,147.229,64.976,240.791H0.001v30.417h64.974
			c7.381,93.562,82.254,168.435,175.816,175.816V512h30.417v-64.975c93.562-7.381,168.435-82.254,175.816-175.816h64.974v-30.417
			h-64.973C439.645,147.229,364.772,72.356,271.21,64.975z M240.791,416.488c-76.777-7.218-138.06-68.503-145.279-145.279h40.477
			c6.875,54.564,50.238,97.927,104.802,104.802V416.488z M240.792,345.263c-37.765-6.414-67.641-36.29-74.055-74.055h74.055V345.263
			z M240.792,240.791h-74.055c6.414-37.765,36.29-67.641,74.055-74.055V240.791z M240.792,135.988
			c-54.564,6.875-97.927,50.238-104.802,104.802H95.512c7.219-76.777,68.503-138.06,145.281-145.279V135.988z M271.21,166.737
			c37.765,6.414,67.641,36.29,74.055,74.055H271.21V166.737z M271.21,271.209h74.055c-6.414,37.765-36.29,67.641-74.055,74.055
			V271.209z M271.21,416.488v-40.477c54.564-6.875,97.927-50.238,104.802-104.802h40.477
			C409.27,347.986,347.987,409.27,271.21,416.488z M376.012,240.791c-6.875-54.564-50.238-97.927-104.802-104.802V95.511
			c76.777,7.219,138.06,68.503,145.279,145.281H376.012z"/>
	</g>
</g>
</svg>